# xmcd
#
# Track frame offsets: 
#        150
#        22035
#        57813
#        84074
#        106079
#        134219
#        163727
#        188105
#        213237
#        237661
#        263111
#        274408
#
# Disc length: 4049 seconds
#
# Revision: 0
# Processed by: cddbd v1.5.2PL0 Copyright (c) Steve Scherf et al.
# Submitted via: ExactAudioCopy v1.0b3
#
DISCID=ab0fcf0c
DTITLE=Huong Lan, Truong Vu - Tam Diep Khuc
DYEAR=2002
DGENRE=
TTITLE0=Huong Lan - Nam cum nui ngu hanh
TTITLE1=Truong Vu - Tinh sau vuong van
TTITLE2=Huong Lan - Tam diep khuc
TTITLE3=Hai mua mua
TTITLE4=Huong Lan - Ha buon
TTITLE5=Truong Vu - Dap be cay dan
TTITLE6=Huong Lan - Truoc gio tam biet
TTITLE7=Truong Vu - Gio ve mien xuoi
TTITLE8=Huong Lan - Tam neo duong thanh
TTITLE9=Huong Lan, Hoai Nam - Tren duong que
TTITLE10=gioi thieu - Tieng hat Duy Vu
TTITLE11=Duy Vu - Nhat ky tinh em
EXTD=
EXTT0=
EXTT1=
EXTT2=
EXTT3=
EXTT4=
EXTT5=
EXTT6=
EXTT7=
EXTT8=
EXTT9=
EXTT10=
EXTT11=
PLAYORDER=
